<svg id="Layer_1" data-name="Layer 1" xmlns="http://www.w3.org/2000/svg" viewBox="0 0 64 48"><defs><style>.cls-1{opacity:0.38;}</style></defs><title>logo-welcome-screen</title><path class="cls-1" d="M7.88,14.69h52a1,1,0,0,1,1,1v8a1,1,0,0,1-1,1h-54a1,1,0,0,1-1-1v-6a3,3,0,0,1,3-3Z" transform="translate(5.53 -7.15) rotate(13.54)"/><path class="cls-1" d="M3.93,33.11h54a1,1,0,0,1,1,1v5a0,0,0,0,1,0,0h-56a0,0,0,0,1,0,0v-5A1,1,0,0,1,3.93,33.11Z"/><polygon class="cls-1" points="56.93 32.11 56.93 31.66 40.93 27.8 40.93 32.11 56.93 32.11"/></svg>