<svg id="Layer_1" data-name="Layer 1" xmlns="http://www.w3.org/2000/svg" viewBox="0 0 120 56"><defs><style>.cls-1{font-size:20px;font-family:Rubik-Medium, Rubik Medium;font-weight:500;}.cls-1,.cls-3,.cls-4{fill:#fff;}.cls-2{letter-spacing:-0.02em;}.cls-4{opacity:0.87;}</style></defs><title>stapler-logo-white</title><text class="cls-1" transform="translate(39.34 34.66)">Staple<tspan class="cls-2" x="62.08" y="0">r</tspan></text><path class="cls-3" d="M12,22.54H36a1,1,0,0,1,1,1v3a1,1,0,0,1-1,1H10a1,1,0,0,1-1-1v-1A3,3,0,0,1,12,22.54Z" transform="translate(6.5 -4.68) rotate(13.54)"/><path class="cls-3" d="M9,31.74H35a1,1,0,0,1,1,1v2a0,0,0,0,1,0,0H8a0,0,0,0,1,0,0v-2A1,1,0,0,1,9,31.74Z"/><polygon class="cls-4" points="35 31.25 35 31.02 27 29.09 27 31.25 35 31.25"/></svg>